<svg t="1594604787835" class="icon" viewBox="0 0 1024 1024" version="1.1" xmlns="http://www.w3.org/2000/svg" p-id="3209" width="64" height="64"><path d="M136.533333 0h182.0672a136.533333 136.533333 0 0 1 136.533334 136.533333v318.600534H136.533333a136.533333 136.533333 0 0 1-136.533333-136.533334V136.533333a136.533333 136.533333 0 0 1 136.533333-136.533333z m568.866134 0H887.466667a136.533333 136.533333 0 0 1 136.533333 136.533333v182.0672a136.533333 136.533333 0 0 1-136.533333 136.533334H568.866133V136.533333a136.533333 136.533333 0 0 1 136.533334-136.533333zM136.533333 568.866133h318.600534V887.466667a136.533333 136.533333 0 0 1-136.533334 136.533333H136.533333a136.533333 136.533333 0 0 1-136.533333-136.533333v-182.0672a136.533333 136.533333 0 0 1 136.533333-136.533334z m432.3328 0H887.466667a136.533333 136.533333 0 0 1 136.533333 136.533334V887.466667a136.533333 136.533333 0 0 1-136.533333 136.533333h-182.0672a136.533333 136.533333 0 0 1-136.533334-136.533333V568.866133z" p-id="3210"></path></svg>
